<?xml version="1.0" encoding="utf-8"?>
<!-- Generator: Adobe Illustrator 21.0.2, SVG Export Plug-In . SVG Version: 6.00 Build 0)  -->
<svg version="1.1" id="Layer_1" xmlns="http://www.w3.org/2000/svg" xmlns:xlink="http://www.w3.org/1999/xlink" x="0px" y="0px"
	 viewBox="0 0 147.9 31.8" style="enable-background:new 0 0 147.9 31.8;" xml:space="preserve">
<style type="text/css">
	.st0{fill:#8AD124;}
</style>
<rect x="91.5" class="st0" width="5.8" height="4.9"/>
<rect x="83.2" class="st0" width="5.8" height="4.9"/>
<path class="st0" d="M24.3,26V14.9c0-2.6-1.2-4-3.2-4c-2.1,0-3.4,1.4-3.4,4V26h-5.5V14.9c0-2.6-1.2-4-3.2-4c-2.1,0-3.4,1.4-3.4,4V26
	H0V6.3h5.5V9c1.3-1.6,3-3.1,5.8-3.1c2.6,0,4.5,1.1,5.5,3.1c1.7-2,3.8-3.1,6.4-3.1c4.1,0,6.6,2.5,6.6,7.2V26H24.3z"/>
<path class="st0" d="M50,18H36.4c0.5,2.5,2.3,3.8,4.8,3.8c1.9,0,3.2-0.6,4.7-2l3.2,2.8c-1.8,2.3-4.4,3.6-8,3.6
	c-5.9,0-10.2-4.1-10.2-10.1v-0.1c0-5.6,4-10.2,9.7-10.2c6.5,0,9.5,5.1,9.5,10.6v0.1C50.1,17.1,50,17.5,50,18z M40.6,10.4
	c-2.3,0-3.8,1.6-4.2,4.2h8.3C44.4,12,42.9,10.4,40.6,10.4z"/>
<path class="st0" d="M58,26.1c-3.4,0-5.7-1.3-5.7-5.9V11H50V6.3h2.3v-5h5.5v5h4.6V11h-4.6v8.3c0,1.3,0.5,1.9,1.8,1.9
	c1,0,1.9-0.3,2.7-0.7V25C61.2,25.7,59.9,26.1,58,26.1z"/>
<path class="st0" d="M75.8,26v-2.3c-1.3,1.5-3.2,2.5-5.9,2.5c-3.7,0-6.7-2.1-6.7-6v-0.1c0-4.3,3.2-6.2,7.9-6.2c2,0,3.4,0.3,4.8,0.8
	v-0.3c0-2.3-1.4-3.6-4.2-3.6c-2.1,0-3.6,0.4-5.4,1.1l-1.4-4.2c2.2-0.9,4.3-1.6,7.6-1.6c6.1,0,8.7,3.1,8.7,8.4V26H75.8z M75.9,17.9
	c-0.9-0.4-2.2-0.7-3.5-0.7c-2.4,0-3.8,0.9-3.8,2.7V20c0,1.5,1.2,2.4,3,2.4c2.6,0,4.3-1.4,4.3-3.4V17.9z"/>
<path class="st0" d="M82.5,31.8c-1,0-1.6-0.1-2.4-0.2v-4.3c0.4,0.1,0.8,0.1,1.2,0.1c1.2,0,2-0.6,2-2.3V6.3h5.5v19.2
	C88.8,29.8,86.6,31.8,82.5,31.8z"/>
<rect x="91.5" y="6.4" class="st0" width="5.5" height="19.6"/>
<path class="st0" d="M110.4,26.2h-5L97.7,6.5h5.9l4.4,13.1l4.4-13.1h5.8L110.4,26.2z"/>
<g>
	<path class="st0" d="M133.5,20.6l-0.9-0.8c-1.5,1.4-2.9,2-4.7,2c-2.5,0-4.2-1.3-4.8-3.8h11.7l1.8-3.7c-0.7-4.6-3.7-8.3-9.3-8.3
		c-5.7,0-9.7,4.6-9.7,10.2v0.1c0,6,4.3,10.1,10.2,10.1c1.2,0,2.2-0.2,3.2-0.4L133.5,20.6z M127.3,10.4c2.3,0,3.8,1.7,4.1,4.2H123
		C123.5,12,125,10.4,127.3,10.4z"/>
</g>
<polygon class="st0" points="144.4,0.4 131.7,26.7 135.2,26.7 147.9,0.4 "/>
</svg>
